<svg xmlns="http://www.w3.org/2000/svg" viewBox="0 0 512 512" fill="none">
<title>Holographic android</title>
<defs>
  <radialGradient id="ha-fill" cx="50%" cy="44%" r="56%">
    <stop offset="0%" stop-color="#00c8f5" stop-opacity="0.03"/>
    <stop offset="62%" stop-color="#00c8f5" stop-opacity="0.08"/>
    <stop offset="100%" stop-color="#38dfff" stop-opacity="0.30"/>
  </radialGradient>
  <linearGradient id="ha-visor" x1="0" y1="0" x2="0" y2="1">
    <stop offset="0%" stop-color="#80ebff" stop-opacity="0.55"/>
    <stop offset="50%" stop-color="#00c8f5" stop-opacity="0.25"/>
    <stop offset="100%" stop-color="#80ebff" stop-opacity="0.5"/>
  </linearGradient>
  <filter id="ha-glow" x="-30%" y="-30%" width="160%" height="160%">
    <feGaussianBlur stdDeviation="2.2" result="b"/>
    <feMerge><feMergeNode in="b"/><feMergeNode in="SourceGraphic"/></feMerge>
  </filter>
  <filter id="ha-soft" x="-50%" y="-50%" width="200%" height="200%">
    <feGaussianBlur stdDeviation="8"/>
  </filter>
  <clipPath id="ha-clip"><path d="M256 72C316 72 352 116 354 186C356 236 350 272 338 304C324 338 298 366 256 372C214 366 188 338 174 304C162 272 156 236 158 186C160 116 196 72 256 72Z"/></clipPath>
  <linearGradient id="ha-fade" x1="0" y1="0" x2="0" y2="1">
    <stop offset="0%" stop-color="#fff"/>
    <stop offset="80%" stop-color="#fff"/>
    <stop offset="100%" stop-color="#fff" stop-opacity="0"/>
  </linearGradient>
  <mask id="ha-mask"><rect width="512" height="512" fill="url(#ha-fade)"/></mask>
</defs>
<g mask="url(#ha-mask)">
  <path d="M256 72C316 72 352 116 354 186C356 236 350 272 338 304C324 338 298 366 256 372C214 366 188 338 174 304C162 272 156 236 158 186C160 116 196 72 256 72Z" stroke="#00c8f5" stroke-width="10" opacity="0.45" filter="url(#ha-soft)"/>
  <path d="M256 72C316 72 352 116 354 186C356 236 350 272 338 304C324 338 298 366 256 372C214 366 188 338 174 304C162 272 156 236 158 186C160 116 196 72 256 72Z" fill="url(#ha-fill)"/>
  <g clip-path="url(#ha-clip)" stroke="#00c8f5" stroke-width="0.9" opacity="0.32"><path d="M130 88Q256 73.9 382 88"/><path d="M130 103Q256 90.6 382 103"/><path d="M130 118Q256 107.2 382 118"/><path d="M130 133Q256 123.9 382 133"/><path d="M130 148Q256 140.5 382 148"/><path d="M130 163Q256 157.2 382 163"/><path d="M130 178Q256 173.8 382 178"/><path d="M130 193Q256 190.5 382 193"/><path d="M130 208Q256 207.1 382 208"/><path d="M130 223Q256 223.8 382 223"/><path d="M130 238Q256 240.4 382 238"/><path d="M130 253Q256 257.1 382 253"/><path d="M130 268Q256 273.7 382 268"/><path d="M130 283Q256 290.4 382 283"/><path d="M130 298Q256 307.0 382 298"/><path d="M130 313Q256 323.7 382 313"/><path d="M130 328Q256 340.3 382 328"/><path d="M130 343Q256 357.0 382 343"/><path d="M130 358Q256 373.6 382 358"/></g>
  <g stroke="#38dfff" stroke-width="1.6" stroke-linecap="round" filter="url(#ha-glow)" opacity="0.85"><path d="M226 358L224 450"/><path d="M286 358L288 450"/><path d="M220 372C240 377 272 377 292 372"/><path d="M220 388C240 393 272 393 292 388"/><path d="M220 404C240 409 272 409 292 404"/><path d="M220 420C240 425 272 425 292 420"/><path d="M220 436C240 441 272 441 292 436"/><path d="M214 362C206 400 204 430 196 456"/><path d="M298 362C306 400 308 430 316 456"/><path d="M204 456C170 460 118 470 70 490"/><path d="M308 456C342 460 394 470 442 490"/><path d="M178 466C150 470 120 478 96 492"/><path d="M334 466C362 470 392 478 416 492"/><path d="M226 466L252 502"/><path d="M286 466L260 502"/></g>
  <g stroke="#38dfff" stroke-width="1.7" filter="url(#ha-glow)"><circle cx="154" cy="222" r="24"/><circle cx="154" cy="222" r="13"/><circle cx="358" cy="222" r="24"/><circle cx="358" cy="222" r="13"/><path d="M146 202L132 150M156 199L146 156"/><path d="M366 202L380 150M356 199L366 156"/></g>
  <circle cx="154" cy="222" r="4" fill="#e0faff" filter="url(#ha-glow)"/>
  <circle cx="358" cy="222" r="4" fill="#e0faff" filter="url(#ha-glow)"/>
  <path d="M256 72C316 72 352 116 354 186C356 236 350 272 338 304C324 338 298 366 256 372C214 366 188 338 174 304C162 272 156 236 158 186C160 116 196 72 256 72Z" stroke="#38dfff" stroke-width="2.2" filter="url(#ha-glow)"/>
  <g stroke="#80ebff" stroke-width="1.5" stroke-linecap="round" filter="url(#ha-glow)" opacity="0.9"><path d="M190 150C176 190 176 236 184 276C192 312 218 346 256 356C294 346 320 312 328 276C336 236 336 190 322 150"/><path d="M190 150C218 132 294 132 322 150"/><path d="M256 136L256 76"/><path d="M236 138C234 110 238 90 246 78"/><path d="M276 138C278 110 274 90 266 78"/><path d="M198 262L218 268"/><path d="M198 274L218 280"/><path d="M198 286L218 292"/><path d="M314 262L294 268"/><path d="M314 274L294 280"/><path d="M314 286L294 292"/><path d="M232 300L280 300"/><path d="M234 310L278 310"/><path d="M237 320L275 320"/><path d="M240 330L272 330"/><path d="M256 244L256 272"/><path d="M226 342C240 348 272 348 286 342"/></g>
  <rect x="176" y="196" width="160" height="40" rx="20" fill="url(#ha-visor)" stroke="#80ebff" stroke-width="2" filter="url(#ha-glow)"/>
  <g stroke="#80ebff" stroke-width="1" opacity="0.6"><path d="M190 208L322 208"/><path d="M190 216L322 216"/><path d="M190 224L322 224"/></g>
  <rect x="196" y="211" width="40" height="10" rx="5" fill="#e0faff" filter="url(#ha-glow)"/>
  <rect x="276" y="211" width="40" height="10" rx="5" fill="#e0faff" filter="url(#ha-glow)"/>
  <ellipse cx="256" cy="456" rx="48" ry="9" stroke="#38dfff" stroke-width="1.6" filter="url(#ha-glow)"/>
  <circle cx="256" cy="484" r="7" stroke="#80ebff" stroke-width="1.6" filter="url(#ha-glow)"/>
  <circle cx="423.5" cy="79.7" r="0.9" fill="#80ebff" opacity="0.45"/><circle cx="380.6" cy="140.9" r="1.4" fill="#80ebff" opacity="0.50"/><circle cx="142.0" cy="112.8" r="1.0" fill="#80ebff" opacity="0.72"/><circle cx="134.0" cy="334.0" r="1.6" fill="#80ebff" opacity="0.39"/><circle cx="416.0" cy="364.5" r="1.3" fill="#80ebff" opacity="0.40"/><circle cx="466.9" cy="275.2" r="1.1" fill="#80ebff" opacity="0.67"/><circle cx="120.5" cy="312.1" r="1.7" fill="#80ebff" opacity="0.43"/><circle cx="207.3" cy="31.6" r="0.9" fill="#80ebff" opacity="0.34"/><circle cx="141.3" cy="322.1" r="2.4" fill="#80ebff" opacity="0.43"/><circle cx="126.6" cy="80.5" r="2.2" fill="#80ebff" opacity="0.39"/><circle cx="120.9" cy="356.2" r="1.4" fill="#80ebff" opacity="0.64"/><circle cx="116.4" cy="341.2" r="1.1" fill="#80ebff" opacity="0.34"/><circle cx="205.1" cy="84.2" r="1.2" fill="#80ebff" opacity="0.61"/><circle cx="405.4" cy="73.4" r="1.9" fill="#80ebff" opacity="0.55"/><circle cx="33.0" cy="225.1" r="1.2" fill="#80ebff" opacity="0.40"/><circle cx="341.4" cy="389.3" r="1.8" fill="#80ebff" opacity="0.59"/><circle cx="301.1" cy="463.0" r="2.3" fill="#80ebff" opacity="0.40"/><circle cx="88.1" cy="190.3" r="0.9" fill="#80ebff" opacity="0.72"/><circle cx="81.5" cy="358.7" r="1.7" fill="#80ebff" opacity="0.46"/><circle cx="436.8" cy="332.3" r="2.2" fill="#80ebff" opacity="0.36"/><circle cx="401.2" cy="206.4" r="1.9" fill="#80ebff" opacity="0.57"/><circle cx="94.7" cy="86.4" r="1.1" fill="#80ebff" opacity="0.64"/><circle cx="420.8" cy="397.4" r="0.9" fill="#80ebff" opacity="0.74"/><circle cx="50.4" cy="250.1" r="2.1" fill="#80ebff" opacity="0.30"/><circle cx="126.3" cy="283.7" r="1.2" fill="#80ebff" opacity="0.47"/><circle cx="420.1" cy="247.8" r="1.1" fill="#80ebff" opacity="0.37"/><circle cx="247.4" cy="74.0" r="1.0" fill="#80ebff" opacity="0.73"/><circle cx="129.8" cy="163.2" r="1.4" fill="#80ebff" opacity="0.28"/><circle cx="103.2" cy="312.7" r="2.3" fill="#80ebff" opacity="0.60"/><circle cx="94.6" cy="357.1" r="1.3" fill="#80ebff" opacity="0.69"/><circle cx="161.6" cy="53.4" r="1.1" fill="#80ebff" opacity="0.40"/><circle cx="463.6" cy="270.9" r="0.9" fill="#80ebff" opacity="0.26"/><circle cx="360.9" cy="363.6" r="2.4" fill="#80ebff" opacity="0.53"/><circle cx="127.9" cy="347.8" r="1.6" fill="#80ebff" opacity="0.68"/><circle cx="87.1" cy="257.4" r="0.9" fill="#80ebff" opacity="0.67"/><circle cx="120.9" cy="107.3" r="2.2" fill="#80ebff" opacity="0.56"/><circle cx="73.0" cy="361.0" r="2.1" fill="#80ebff" opacity="0.43"/><circle cx="71.4" cy="300.5" r="2.0" fill="#80ebff" opacity="0.68"/><circle cx="36.0" cy="239.4" r="1.7" fill="#80ebff" opacity="0.64"/>
</g>
<ellipse cx="256" cy="494" rx="150" ry="12" stroke="#38dfff" stroke-width="2" opacity="0.7" filter="url(#ha-glow)"/>
<ellipse cx="256" cy="494" rx="185" ry="16" stroke="#00c8f5" stroke-width="1" opacity="0.35"/>
</svg>
